<svg xmlns="http://www.w3.org/2000/svg" width="126" height="54" fill="none"><path fill="#000" d="M10.377 15.585c2.363 0 4.428.468 6.195 1.405 1.767.937 3.129 2.256 4.087 3.96.979 1.681 1.469 3.629 1.469 5.843 0 2.192-.49 4.14-1.47 5.843-.957 1.703-2.33 3.022-4.118 3.96-1.767.936-3.821 1.404-6.163 1.404H1.98V15.585h8.397Zm-.35 17.69c2.064 0 3.671-.565 4.82-1.693 1.15-1.128 1.725-2.725 1.725-4.79 0-2.064-.575-3.671-1.724-4.82-1.15-1.15-2.757-1.725-4.822-1.725H7.44v13.027h2.586Zm14.066-4.215c0-1.831.34-3.438 1.022-4.822.703-1.383 1.65-2.448 2.842-3.193 1.192-.745 2.522-1.118 3.991-1.118 1.256 0 2.352.256 3.289.767.958.51 1.692 1.181 2.203 2.012v-2.523h5.46V38h-5.46v-2.523c-.532.83-1.277 1.501-2.235 2.012-.937.511-2.033.766-3.289.766-1.447 0-2.767-.372-3.96-1.117-1.191-.766-2.139-1.841-2.84-3.225-.682-1.405-1.023-3.023-1.023-4.853Zm13.347.032c0-1.363-.383-2.438-1.15-3.226-.744-.787-1.66-1.18-2.745-1.18-1.086 0-2.012.393-2.778 1.18-.745.767-1.118 1.831-1.118 3.194 0 1.362.373 2.448 1.118 3.256.766.788 1.692 1.182 2.778 1.182 1.085 0 2-.394 2.746-1.182.766-.787 1.15-1.862 1.15-3.225Zm20.267-9.1c2.086 0 3.746.68 4.98 2.043 1.257 1.341 1.885 3.193 1.885 5.556V38h-5.429v-9.675c0-1.192-.308-2.118-.926-2.778-.617-.66-1.447-.99-2.49-.99-1.043 0-1.873.33-2.49.99-.618.66-.927 1.586-.927 2.778V38h-5.46V20.183h5.46v2.363c.554-.788 1.299-1.405 2.235-1.852.937-.468 1.99-.703 3.161-.703Zm9.573 9.068c0-1.831.34-3.438 1.022-4.822.702-1.383 1.65-2.448 2.842-3.193 1.192-.745 2.522-1.118 3.99-1.118 1.257 0 2.353.256 3.29.767.958.51 1.692 1.181 2.203 2.012v-2.523h5.46V38h-5.46v-2.523c-.532.83-1.277 1.501-2.235 2.012-.937.511-2.033.766-3.29.766-1.447 0-2.766-.372-3.958-1.117-1.193-.766-2.14-1.841-2.842-3.225-.681-1.405-1.022-3.023-1.022-4.853Zm13.347.032c0-1.363-.383-2.438-1.15-3.226-.745-.787-1.66-1.18-2.746-1.18-1.085 0-2.011.393-2.777 1.18-.746.767-1.118 1.831-1.118 3.194 0 1.362.372 2.448 1.118 3.256.766.788 1.692 1.182 2.777 1.182 1.086 0 2.001-.394 2.746-1.182.767-.787 1.15-1.862 1.15-3.225Zm20.266-9.1c2.086 0 3.747.68 4.981 2.043 1.256 1.341 1.884 3.193 1.884 5.556V38h-5.428v-9.675c0-1.192-.309-2.118-.926-2.778-.617-.66-1.447-.99-2.49-.99-1.043 0-1.874.33-2.491.99-.617.66-.926 1.586-.926 2.778V38h-5.46V20.183h5.46v2.363c.553-.788 1.299-1.405 2.235-1.852.937-.468 1.99-.703 3.161-.703Zm15.768 13.506h7.727V38h-13.825v-4.343l7.407-8.972h-7.344v-4.502h13.603v4.343l-7.568 8.972Z"/><path stroke="#000" stroke-linecap="round" stroke-width="2" d="M55.615 29v12.5H99V29"/></svg>